<?xml version="1.0" encoding="utf-8"?>
<!-- Generator: Adobe Illustrator 22.0.0, SVG Export Plug-In . SVG Version: 6.00 Build 0)  -->
<svg version="1.1" id="Layer_1" xmlns="http://www.w3.org/2000/svg" xmlns:xlink="http://www.w3.org/1999/xlink" x="0px" y="0px"
	 viewBox="0 0 512 512" style="enable-background:new 0 0 512 512;" xml:space="preserve">
<style type="text/css">
	.st0{fill:#FFFFFF;}
</style>
<g>
	<g>
		<g>
			<path class="st0" d="M81.6,100.2v310.3c0,10.8,8.7,19.5,19.5,19.5h310.3c10.8,0,19.5-8.7,19.5-19.5V100.2
				c0-10.8-8.7-19.5-19.5-19.5H101.1C90.4,80.7,81.6,89.4,81.6,100.2z"/>
			<path class="st0" d="M8.4,172c2.7,1.6,5.7,2.4,8.6,2.4c4.3,0,8.6-1.7,11.8-4.9l1.8-1.8c11.3-11.3,17.7-26.7,17.7-42.7V47.3h77.6
				c16,0,31.4-6.4,42.7-17.7c3.8-3.8,5.8-9.1,5-14.4c-1.3-8.5-8.4-14.3-16.5-14.3H17C7.8,0.9,0.3,8.4,0.3,17.6v139.7
				C0.3,163.2,3.3,168.9,8.4,172z"/>
			<path class="st0" d="M167,481c-11.3-11.3-26.7-17.7-42.7-17.7h-76v-76c0-16-6.4-31.4-17.7-42.7l-1.8-1.8
				c-4.3-4.3-10.7-6.3-16.6-4.6c-7.3,2-12.2,8.7-12.2,16.1v140.1c0,9.2,7.5,16.7,16.7,16.7h139.6c6.1,0,12-3.1,15-8.4
				c3.7-6.6,2.5-14.8-2.7-20L167,481z"/>
			<path class="st0" d="M495.3,0.9H355.7c-6.1,0-12,3.1-15,8.4c-3.7,6.6-2.5,14.8,2.7,20l0.3,0.3c11.3,11.3,26.7,17.7,42.7,17.7
				h77.9v77.9c0,16,6.4,31.4,17.7,42.7l1.5,1.5c3.2,3.2,7.5,4.9,11.8,4.9c2.9,0,5.9-0.8,8.6-2.4c5.1-3.1,8.1-8.8,8.1-14.7V17.6
				C512,8.4,504.5,0.9,495.3,0.9z"/>
			<path class="st0" d="M504.2,340.4c-6.8-4.4-15.5-3.4-21,2.1l-1.3,1.3c-11.3,11.3-17.7,26.7-17.7,42.7v76.9h-76.9
				c-16,0-31.4,6.4-42.7,17.7l-1.3,1.3c-4.3,4.3-6.3,10.7-4.6,16.6c2,7.3,8.7,12.2,16.1,12.2H495c9.2,0,16.7-7.5,16.7-16.7V354.7
				C511.7,349,509,343.6,504.2,340.4z"/>
		</g>
	</g>
</g>
</svg>
