<?xml version="1.0" encoding="utf-8"?>
<!-- Generator: Adobe Illustrator 22.0.0, SVG Export Plug-In . SVG Version: 6.00 Build 0)  -->
<svg version="1.1" id="Capa_1" xmlns="http://www.w3.org/2000/svg" xmlns:xlink="http://www.w3.org/1999/xlink" x="0px" y="0px"
	 viewBox="0 0 512 512" style="enable-background:new 0 0 512 512;" xml:space="preserve">
<style type="text/css">
	.st0{fill:#FFFFFF;}
</style>
<g>
	<path class="st0" d="M440.1,246.5l69.1-69.1c3.7-3.7,3.7-9.7,0-13.4c-3.7-3.7-9.7-3.7-13.4,0l-69.1,69.1L357.5,164
		c-3.7-3.7-9.7-3.7-13.4,0c-3.7,3.7-3.7,9.7,0,13.4l69.1,69.1l-69.1,69.1c-3.7,3.7-3.7,9.7,0,13.4c1.8,1.8,4.3,2.8,6.7,2.8
		s4.9-0.9,6.7-2.8l69.1-69.1l69.1,69.1c1.8,1.8,4.3,2.8,6.7,2.8s4.9-0.9,6.7-2.8c3.7-3.7,3.7-9.7,0-13.4L440.1,246.5z"/>
	<path class="st0" d="M255,37.9c-5.2,0-10.4,1.5-15,4.2c-0.4,0.3-0.9,0.6-1.2,0.9L110.3,151.7H9.5c-5.2,0-9.5,4.2-9.5,9.5v180.1
		c0,5.2,4.2,9.5,9.5,9.5h100.6l128.4,117.9c0.5,0.4,1,0.8,1.5,1.1c4.6,2.8,9.8,4.2,15,4.2c16.2,0,29.4-13.4,29.4-29.9V67.8
		C284.4,51.4,271.2,37.9,255,37.9z M123.3,331.9c0,5.2-4.2,9.5-9.5,9.5s-9.5-4.2-9.5-9.5v-37.9c0-5.2,4.2-9.5,9.5-9.5
		s9.5,4.2,9.5,9.5V331.9z M123.3,208.6c0,5.2-4.2,9.5-9.5,9.5s-9.5-4.2-9.5-9.5v-37.9c0-5.2,4.2-9.5,9.5-9.5s9.5,4.2,9.5,9.5V208.6z
		"/>
</g>
</svg>
