<?xml version="1.0" encoding="utf-8"?>
<!-- Generator: Adobe Illustrator 22.0.0, SVG Export Plug-In . SVG Version: 6.00 Build 0)  -->
<svg version="1.1" id="Capa_1" xmlns="http://www.w3.org/2000/svg" xmlns:xlink="http://www.w3.org/1999/xlink" x="0px" y="0px"
	 viewBox="0 0 512 512" style="enable-background:new 0 0 512 512;" xml:space="preserve">
<style type="text/css">
	.st0{fill:#FFFFFF;}
</style>
<g>
	<path class="st0" d="M388.4,0c-6.1,0-12.2,1.7-17.6,4.9c-0.5,0.3-1,0.7-1.4,1L218.5,133.6H100.2c-6.2,0-11.1,5-11.1,11.1v211.5
		c0,6.2,5,11.1,11.1,11.1h118.1L369,505.7c0.6,0.5,1.2,1,1.8,1.3c5.4,3.2,11.5,4.9,17.6,4.9c19.1,0,34.6-15.8,34.6-35.1V35.1
		C423,15.8,407.4,0,388.4,0z M233.7,345c0,6.2-5,11.1-11.1,11.1c-6.2,0-11.1-5-11.1-11.1v-44.5c0-6.2,5-11.1,11.1-11.1
		c6.2,0,11.1,5,11.1,11.1V345z M233.7,200.3c0,6.2-5,11.1-11.1,11.1c-6.2,0-11.1-5-11.1-11.1v-44.5c0-6.2,5-11.1,11.1-11.1
		c6.2,0,11.1,5,11.1,11.1V200.3z"/>
</g>
</svg>
